<?xml version="1.0" standalone="no"?><!DOCTYPE svg PUBLIC "-//W3C//DTD SVG 1.1//EN" "http://www.w3.org/Graphics/SVG/1.1/DTD/svg11.dtd"><svg t="1687841979091" class="icon" viewBox="0 0 1024 1024" version="1.1" xmlns="http://www.w3.org/2000/svg" p-id="7889" xmlns:xlink="http://www.w3.org/1999/xlink" width="200" height="200"><path d="M513.467733 12.72832c-276.821333 0-501.22752 224.4096-501.22752 501.230933 0 276.814507 224.406187 501.22752 501.22752 501.22752 276.811093 0 501.224107-224.413013 501.224107-501.22752C1014.69184 237.13792 790.278827 12.72832 513.467733 12.72832zM474.528427 697.381547c0 33.952427-27.528533 61.474133-61.484373 61.474133L322.874027 758.85568c-33.952427 0-61.48096-27.521707-61.48096-61.474133l0-86.080853c0-33.952427 27.52512-61.474133 61.48096-61.474133l90.17344 0c33.952427 0 61.484373 27.521707 61.484373 61.474133L474.528427 697.381547 474.528427 697.381547zM474.528427 416.610987c0 33.95584-27.528533 61.48096-61.484373 61.48096L322.874027 478.091947c-33.952427 0-61.48096-27.52512-61.48096-61.48096L261.393067 330.53696c0-33.95584 27.52512-61.48096 61.48096-61.48096l90.17344 0c33.952427 0 61.484373 27.52512 61.484373 61.48096L474.528427 416.610987 474.528427 416.610987zM765.538987 697.381547c0 33.952427-27.521707 61.474133-61.48096 61.474133L613.888 758.85568c-33.952427 0-61.48096-27.521707-61.48096-61.474133l0-86.080853c0-33.952427 27.52512-61.474133 61.48096-61.474133l90.17344 0c33.952427 0 61.48096 27.521707 61.48096 61.474133L765.5424 697.381547zM765.538987 416.610987c0 33.95584-27.521707 61.48096-61.48096 61.48096L613.888 478.091947c-33.952427 0-61.48096-27.52512-61.48096-61.48096L552.40704 330.53696c0-33.95584 27.52512-61.48096 61.48096-61.48096l90.17344 0c33.952427 0 61.48096 27.52512 61.48096 61.48096L765.5424 416.610987z" fill="#000000" p-id="7890"></path></svg>