<?xml version="1.0" standalone="no"?><!DOCTYPE svg PUBLIC "-//W3C//DTD SVG 1.1//EN" "http://www.w3.org/Graphics/SVG/1.1/DTD/svg11.dtd"><svg t="1687767004172" class="icon" viewBox="0 0 1024 1024" version="1.1" xmlns="http://www.w3.org/2000/svg" p-id="2242" xmlns:xlink="http://www.w3.org/1999/xlink" width="200" height="200"><path d="M412 942c-5.25 0-10.53-1.39-15.24-4.16a29.981 29.981 0 0 1-14.52-29.55l5.95-47.6c2.49-19.92-3.7-39.98-16.98-55.02S338.79 782 318.72 782H212c-71.68 0-130-58.32-130-130V212c0-71.68 58.32-130 130-130h600c71.68 0 130 58.32 130 130v440c0 71.68-58.32 130-130 130H664.52c-14.88 0-29.12 4.63-41.17 13.38l-193.7 140.88A30.023 30.023 0 0 1 412 942zM212 142c-38.59 0-70 31.41-70 70v440c0 38.59 31.41 70 70 70h106.72c37.28 0 72.79 16.02 97.46 43.96a130.09 130.09 0 0 1 32.48 82.29l139.41-101.39c22.36-16.27 48.81-24.86 76.45-24.86H812c38.59 0 70-31.41 70-70V212c0-38.59-31.41-70-70-70H212z" p-id="2243" fill="#58b6eb"></path><path d="M752 362H272c-16.57 0-30-13.43-30-30s13.43-30 30-30h480c16.56 0 30 13.43 30 30s-13.44 30-30 30zM472 562H272c-16.57 0-30-13.44-30-30 0-16.57 13.43-30 30-30h200c16.57 0 30 13.43 30 30 0 16.56-13.43 30-30 30z" p-id="2244" fill="#58b6eb"></path></svg>