<?xml version="1.0" standalone="no"?><!DOCTYPE svg PUBLIC "-//W3C//DTD SVG 1.1//EN" "http://www.w3.org/Graphics/SVG/1.1/DTD/svg11.dtd"><svg t="1687841007568" class="icon" viewBox="0 0 1024 1024" version="1.1" xmlns="http://www.w3.org/2000/svg" p-id="27403" xmlns:xlink="http://www.w3.org/1999/xlink" width="200" height="200"><path d="M512 512m-450.56 0a450.56 450.56 0 1 0 901.12 0 450.56 450.56 0 1 0-901.12 0Z" fill="#131415" p-id="27404"></path><path d="M512 204.8a163.84 163.84 0 0 1 104.0384 290.4064 235.47904 235.47904 0 0 1 131.39968 205.37344l0.08192 5.98016v40.96a30.72 30.72 0 0 1-61.29664 2.94912L686.08 747.52v-40.96a174.08 174.08 0 0 0-348.07808-5.2224l-0.08192 5.2224v40.96a30.72 30.72 0 0 1-61.29664 2.94912L276.48 747.52v-40.96a235.52 235.52 0 0 1 131.4816-211.3536A163.84 163.84 0 0 1 512 204.8z m0 61.44a102.4 102.4 0 1 0 0 204.8 102.4 102.4 0 0 0 0-204.8z" fill="#FFFFFF" p-id="27405"></path></svg>